<?xml version="1.0" standalone="no"?>
<!DOCTYPE svg PUBLIC "-//W3C//DTD SVG 20010904//EN" "http://www.w3.org/TR/2001/REC-SVG-20010904/DTD/svg10.dtd">
<!-- Created using Karbon, part of Calligra: http://www.calligra.org/karbon -->
<svg xmlns="http://www.w3.org/2000/svg" xmlns:xlink="http://www.w3.org/1999/xlink" width="99pt" height="99pt">
<defs>
  <linearGradient id="gradient0" gradientTransform="matrix(0.764004 0 0 0.764004 17.3336 19.2236)" gradientUnits="objectBoundingBox" x1="0.39101436484" y1="1.01808481158" x2="0.39101436484" y2="-0.29406393657" spreadMethod="pad">
   <stop stop-color="#000000" offset="0.00000000000" stop-opacity="1.00000000000"/>
   <stop stop-color="#757575" offset="1.00000000000" stop-opacity="1.00000000000"/>
  </linearGradient>
 </defs>
<g id="layer0">
  <path id="path3938" transform="matrix(1.25 0 0 1.25 8.16232 8.17466)" fill="url(#gradient0)" fill-rule="evenodd" opacity="0.40000000000" d="M42.7701 0.000392841C22.7965 0.0830928 4.92352 14.1584 0.845146 34.5004C-3.81585 57.7484 11.2721 80.4144 34.5201 85.0754C57.7681 89.7364 80.4341 74.6484 85.0951 51.4004C89.7561 28.1524 74.6681 5.48639 51.4201 0.825393C48.5141 0.242768 45.6235 -0.0114212 42.7701 0.000392841Z"/>
  <g id="Group" transform="translate(23.4599, 34.4901)" fill="none" opacity="0.70000000000">
   <path id="path104" transform="matrix(1.25 0 0 -1.25 0.35009 32.7849)" fill="#cccccc" fill-rule="evenodd" d="M25.382 0L0 12.723L51.004 25.622Z"/>
   <path id="path106" transform="matrix(1.25 0 0 -1.25 32.0776 64.5137)" fill="#555555" fill-rule="evenodd" d="M0 25.383L12.723 0L25.622 51.005Z"/>
  </g>
  <path id="path96" transform="matrix(1.25 0 0 1.25 1.87434 1.87434)" fill="#b3b3b3" fill-rule="evenodd" opacity="0.50000000000" d="M38.5655 95.0565C12.5905 89.8495 -4.26347 64.5405 0.944526 38.5655C6.15153 12.5905 31.4605 -4.26347 57.4355 0.944526C83.4105 6.15153 100.265 31.4605 95.0565 57.4355C89.8495 83.4105 64.5405 100.265 38.5655 95.0565ZM90.1165 56.4445C94.7775 33.1965 79.6925 10.5455 56.4445 5.88453C33.1965 1.22353 10.5455 16.3085 5.88453 39.5565C1.22353 62.8045 16.3085 85.4555 39.5565 90.1165C62.8045 94.7775 85.4555 79.6925 90.1165 56.4445Z"/>
 </g>
</svg>
